<svg xmlns="http://www.w3.org/2000/svg" xmlns:xlink="http://www.w3.org/1999/xlink" id="Calque_1" x="0px" y="0px" viewBox="0 0 180.2 168.7" style="enable-background:new 0 0 180.2 168.7;" xml:space="preserve"><style type="text/css">	.st0{fill-rule:evenodd;clip-rule:evenodd;}</style><g id="_x31_1">	<g>		<path class="st0" d="M19.6,23.8c1.6,0,2.8-1.3,2.8-2.8v-2.8h8.5c1.6,0,2.8-1.3,2.8-2.8c0-1.6-1.3-2.8-2.8-2.8H19.6   c-1.6,0-2.8,1.3-2.8,2.8v5.6C16.7,22.5,18,23.8,19.6,23.8z M67.4,18.7c4.4,0,18.8,6.5,22.9,8.3c6.9,3.1,14.5,6.6,21.2,9.8   c1.8-1.2,3.6-2.4,5.5-3.6c-8.2-3.9-18.2-8.5-26.7-12.3c-4.1-1.8-18.6-8.3-22.9-8.3c-4.3,0-19,6.6-22.7,8.2   C26.5,28.9,1.6,40.9,1.6,40.9c-1.4,0.6-2.1,2.3-1.5,3.7c0.6,1.4,2.3,2.1,3.7,1.5c0,0,23-11.2,41-19.3   C48.7,25.1,62.9,18.7,67.4,18.7z M73.1,119.6V114v-8.5V98c0-0.8,0-1.7,0-2.5v-5.1c0-8.7-8.8-15.8-19.7-15.8   c-10.9,0-19.7,7.1-19.7,15.8v15.2v8.5v5.6H16.7V60.4c0-1.6-1.3-2.8-2.8-2.8c-1.6,0-2.8,1.3-2.8,2.8v62c0,1.6,1.3,2.8,2.8,2.8h22.6   c1.6,0,2.8-1.3,2.8-2.8V114v-8.5V91.4c0-6.2,6.3-11.3,14.1-11.3c7.8,0,14.1,5,14.1,11.3v14.1v8.5v8.5c0,1.6,1.3,2.8,2.8,2.8h11.9   c-1.4-1.8-2.6-3.7-3.7-5.6H73.1z M121.2,42.2C97.4,56.5,83.1,78.9,84.5,97c0.3,4,1.1,8.8,3,13.3c2.7,6.6,8.4,13.7,17.3,17.8   c-0.1,1.6-0.1,2.9-0.1,3.2c-0.1,7.6,1.1,13.3,2.3,19.6c0.2,1.6,1.6,2.6,3.2,2.4c1.6-0.2,2.8-1.6,2.5-3.1c-1.7-8.7-2.3-14.3-2.3-19   c0-0.2,0-0.6,0-1.2c9.9,2.6,22.4,1.4,33.8-4.9c3.3-1.8,6.8-4.7,8.8-7.1c15.7-19.2-3.4-52.5,27.3-88.3   C180.3,29.7,153,25.8,121.2,42.2z M155.7,74.5c-1.7,16.4,0.3,30-6.4,39.2c-1.9,2.5-5.3,5.3-8.8,7.2c-9.2,5-21,6.3-29.9,3.5   c0.1-1.1,0.2-2,0.2-2.3c1.6-12.5,4.3-25.2,13.8-38.7c0.9-1.2,0.6-2.9-0.7-3.8c-1.3-0.9-3.1-0.5-4,0.8   c-8.9,12.7-12.7,26.1-14.2,36.7c-0.1,1-0.4,2.8-0.6,4.9c-7.4-4.1-10-8.6-12.3-13.4c-1.8-3.7-2.5-8.1-2.8-11.5   c-1.3-16.2,12-36.9,32.9-49.5c27.7-14.3,46.9-12.5,46.8-12.3C161.6,44.1,156.9,62.7,155.7,74.5z"></path>	</g></g></svg>