<svg xmlns="http://www.w3.org/2000/svg" xmlns:xlink="http://www.w3.org/1999/xlink" id="Calque_1" x="0px" y="0px" viewBox="0 0 250 250" style="enable-background:new 0 0 250 250;" xml:space="preserve"><style type="text/css">	.st0{fill-rule:evenodd;clip-rule:evenodd;}</style><g id="_x31_9">	<g>		<path class="st0" d="M37.2,68.7h-6.3c-3.5,0-6.3,2.8-6.3,6.3v37.5c0,3.5,2.8,6.3,6.3,6.3h6.3c3.5,0,6.3-2.8,6.3-6.3V74.9   C43.5,71.5,40.7,68.7,37.2,68.7z M37.2,109.9c0,1.7-0.8,2.5-2.5,2.5h-1.2c-1.7,0-2.5-0.8-2.5-2.5V77.5c0-1.7,0.8-2.5,2.5-2.5h1.2   c1.7,0,2.5,0.8,2.5,2.5V109.9z M218.5,68.7h-6.3c-3.5,0-6.3,2.8-6.3,6.3v37.5c0,3.5,2.8,6.3,6.3,6.3h6.3c3.5,0,6.3-2.8,6.3-6.3   V74.9C224.8,71.5,222,68.7,218.5,68.7z M218.5,109.9c0,1.7-0.8,2.5-2.5,2.5h-1.2c-1.7,0-2.5-0.8-2.5-2.5V77.5   c0-1.7,0.8-2.5,2.5-2.5h1.2c1.7,0,2.5,0.8,2.5,2.5V109.9z M193.6,119.5c-0.1-0.1-0.1-43.2-0.1-44.5c0.3-6-4-6.2-7.4-6.2   c-22.1,0.6-36.4-8.1-39.2-6.2c-3.5,0.9-13.6,6.4-22.6,11.6c-11.1-6.8-22.1-11.5-28.5-11.7c-5.9,0.3-14.7,6.2-23.8,6.2   c-2.9,0-6.5,0-9.8,0.1c-3,0-6.3,1.9-6.3,6.2c0,2.9-0.1,44.6-0.1,44.6s4.6,6,6.3,8.2c0.1,0.1,0.2,0.2,0.3,0.3l-7.9,8.9   c-5.6,6.6-5.8,14.7,0.4,20.6c4.9,4.7,11.5,4.7,16.6,2c0,0.2,0.1,0.3,0.2,0.5c0.1,0.2,0.1,0.4,0.2,0.6c0.1,0.2,0.1,0.3,0.2,0.5   c0.1,0.2,0.2,0.4,0.2,0.6c0.1,0.2,0.2,0.3,0.2,0.5c0.1,0.2,0.2,0.4,0.3,0.6c0.1,0.2,0.2,0.3,0.3,0.5c0.1,0.2,0.2,0.4,0.4,0.6   c0.1,0.1,0.2,0.3,0.3,0.4c0.1,0.2,0.3,0.4,0.4,0.6c0.1,0.1,0.2,0.3,0.3,0.4c0.2,0.2,0.3,0.4,0.5,0.6c0.1,0.1,0.2,0.2,0.3,0.3   c0.3,0.3,0.6,0.6,0.9,0.8c4.8,4.1,11.8,5.3,17.5,1l11.5,13.7c5.6,6.2,13.5,8,19.9,2.9c0.4-0.3,0.7-0.6,1-0.9c0,0,0,0,0,0   c0.3-0.3,0.6-0.6,0.8-0.9c0-0.1,0.1-0.1,0.1-0.2c0.2-0.3,0.4-0.6,0.6-0.9c0.1-0.1,0.1-0.2,0.2-0.2c0.2-0.3,0.4-0.6,0.5-0.9   c0-0.1,0.1-0.1,0.1-0.2c0.2-0.4,0.4-0.7,0.5-1.1c0-0.1,0.1-0.2,0.1-0.3c0.1-0.3,0.2-0.5,0.3-0.8c0.1-0.2,0.1-0.4,0.2-0.5   c0-0.1,0.1-0.2,0.1-0.4c0,0,0,0,0,0c0-0.1,0-0.1,0-0.2c0,0.1,0,0.1,0,0.2c4.7,2.6,11.3,2.8,16.1-1.1c0.4-0.3,0.7-0.6,1.1-1   c0.1-0.1,0.1-0.1,0.1-0.2c0.3-0.3,0.5-0.6,0.8-0.9c0.1-0.1,0.1-0.2,0.2-0.2c0.2-0.3,0.4-0.6,0.6-0.9c0.1-0.1,0.1-0.2,0.2-0.2   c0.2-0.4,0.5-0.7,0.7-1.1c0,0,0-0.1,0.1-0.1c0.2-0.3,0.3-0.7,0.5-1c0.1-0.2,0.1-0.3,0.2-0.5c0.1-0.2,0.2-0.4,0.2-0.6   c0.1-0.2,0.1-0.4,0.2-0.5c0-0.1,0-0.1,0.1-0.2c0,0,0,0,0,0c0-0.1,0-0.2,0.1-0.2c0,0.1,0,0.2-0.1,0.2c5.4,3.3,11.8,2,16.3-1.8   c0.6-0.5,1.2-1.1,1.7-1.8c0,0,0-0.1,0.1-0.1c0.2-0.3,0.5-0.6,0.7-0.9c0,0,0.1-0.1,0.1-0.1c0.2-0.3,0.4-0.6,0.6-0.9   c0,0,0-0.1,0.1-0.1c0.2-0.3,0.4-0.7,0.5-1c0,0,0,0,0-0.1c0.4-0.8,0.7-1.6,0.9-2.4c0,0,0,0,0,0c0.2-0.9,0.4-1.8,0.4-2.7   c0,0.9-0.2,1.8-0.4,2.7c5.1,2.6,11.7,2.6,16.6-2c6.2-5.9,6-14,0.4-20.6l-7.9-8.9c0.1-0.1,0.2-0.3,0.3-0.3   C182.3,126,189.5,121.1,193.6,119.5z M73.9,148.8c-0.3,0.4-0.6,0.8-0.9,1.2c-0.9,1-1.4,1.7-1.4,1.7c-3.4,3.8-8.8,4.3-12.4,0.7   c-3.1-3-2.3-8.5,0.5-11.7c0,0,2.9-3.3,6.7-7.5c4.1,5.2,9.7,12.3,9.7,12.3s0.1,0.2,0.4,0.5L73.9,148.8z M80.4,162.1   c-0.2-0.2-0.4-0.4-0.6-0.6c-0.1-0.1-0.1-0.1-0.2-0.2c-0.1-0.1-0.2-0.3-0.3-0.4c-0.1-0.1-0.1-0.2-0.2-0.3c-0.1-0.1-0.2-0.2-0.2-0.4   c-0.1-0.1-0.1-0.2-0.2-0.3c-0.1-0.1-0.1-0.2-0.2-0.4c0-0.1-0.1-0.2-0.1-0.3c0-0.1-0.1-0.2-0.1-0.3c0-0.1-0.1-0.2-0.1-0.3   c0-0.1-0.1-0.2-0.1-0.3c0-0.1-0.1-0.2-0.1-0.4c0-0.1,0-0.2,0-0.3c0-0.1,0-0.3,0-0.4c0-0.1,0-0.1,0-0.2c0-0.8,0.1-1.6,0.3-2.4   c0,0,0-0.1,0-0.1c0.1-0.2,0.1-0.4,0.2-0.6c0,0,0-0.1,0-0.1c0.1-0.2,0.1-0.4,0.2-0.5c0,0,0-0.1,0-0.1c0.1-0.2,0.2-0.4,0.3-0.5   c0,0,0,0,0-0.1c0.1-0.2,0.2-0.4,0.3-0.6c0.2-0.4,0.5-0.7,0.8-1.1l0.2-0.2c2.9,3.7,6.6,8.4,9.2,11.8   C86.8,164.3,83.1,164.5,80.4,162.1z M128.6,167.6L128.6,167.6c0,0,0,0.1,0.1,0.1C128.6,167.7,128.6,167.7,128.6,167.6z    M183.5,140.6c2.8,3.2,3.6,8.7,0.5,11.7c-3.7,3.6-9,3.1-12.4-0.7l-1.5-1.7c0,0,0,0.1,0.1,0.1c-0.3-0.4-0.6-0.8-0.9-1.2l-8.1-9.5   l-16.2-19c-1.1-1.3-3.1-1.5-4.4-0.3c-1.3,1.1-1.5,3.1-0.3,4.4l16.2,19l6.6,7.8c2.8,3.2,3.3,7.8-0.2,10.9l0,0   c-3.5,3.2-8.6,1.9-11.4-1.3l-2.8-3.3c0.1,0.1,0.1,0.2,0.2,0.2c-0.1-0.1-0.2-0.2-0.3-0.4l-2.7-3.1l-16.2-19   c-1.1-1.3-3.1-1.5-4.4-0.3c-1.3,1.1-1.5,3.1-0.3,4.4l16.2,19l1.2,1.4c2.8,3.2,3,8.1,0,10.9l0,0c-3.2,2.9-8.6,2.3-11.4-0.9   l-3.9-4.5c-0.5-0.7-1.4-1.8-2.7-3.3c-4.7-5.5-13.2-15.5-13.2-15.5c-1.1-1.3-3.1-1.5-4.4-0.3c-1.3,1.1-1.5,3.1-0.3,4.4   c0,0,8.5,9.9,13.2,15.5l1.8,2.2c2.6,3.2,3.4,7.8-0.2,10.9l0,0c-3.6,3.1-8.4,1.2-11.2-2l-9.6-12c-1.2-1.3-9-11-16.7-20.6   c-2.6-3.2-9.3-11.9-15.2-19.1c-2.2-3-5.9-7.8-5.9-7.8s0-32.8,0-36.5c0-5.3,1-6.4,6.1-6.3c7.2-0.4,13.4-1.9,23.1-5   c4.6-1.5,5.3-1.4,9.2-0.2c4.7,1.4,10.9,4,17.9,8c-5.2,3.1-9.3,5.7-10.1,6.5c-1.5,1.4-4.4,15.1-11.9,26.3c-0.5,0.8-1.9,4.1,1.2,8.1   c2.9,3.8,7.4,3.6,10.4,3.5c7.7-0.3,19-6.4,22.4-16.7c0.6-2,1.3-2.4,2.6-3c1.1-0.5,6-2,7.1-2.5c1.2-0.4,3-0.1,4.5,1.2   c2.6,2.3,5.3,4.1,8,5.4c2.7,2.9,5.8,6.2,8.7,9.5C166.4,121.6,183.5,140.6,183.5,140.6z M176.7,123.6l-1.4-1.5   c-1.1-1.3-5.4-6.2-11.2-12.7c3.6,0,7.1-0.7,10.6-2.1V100c-0.2,0.1-0.4,0.2-0.6,0.3c-9.2,5.2-16.8,3.7-27-4.6c-2.9-2.6-6-2.3-7.1-2   c-2.8,0.7-8.5,2.8-11.2,3.8c-1.6,0.6-3.2,1.7-3.4,3.3c-3.3,12-15,16.9-20.1,15c-4.7-1.8-2.2-4.9-1.6-5.7   c5.7-8.6,9.7-21.5,10.9-22.7c1.5-1.6,26.8-15.7,33.2-18.1c3.9-1,11.8,4.9,29.6,5.7c0.9,0,1.9,0,2.9,0c6.6-0.2,7,0.2,7,6.4   c0,4.7,0,11.1,0,17c0,7.4,0,14.9,0,17C184.9,116.6,181.2,118.7,176.7,123.6z"></path>	</g></g></svg>