<svg xmlns="http://www.w3.org/2000/svg" xmlns:xlink="http://www.w3.org/1999/xlink" id="Calque_1" x="0px" y="0px" viewBox="0 0 180.2 168.7" style="enable-background:new 0 0 180.2 168.7;" xml:space="preserve"><style type="text/css">	.st0{fill-rule:evenodd;clip-rule:evenodd;}</style><g id="_x32_0">	<g>		<path class="st0" d="M67.2,7.4c4.4,0,18.8,6.5,22.9,8.3c18,8.1,40.9,19.1,40.9,19.1c1.4,0.6,3.1-0.1,3.7-1.5   c0.6-1.4-0.1-3.1-1.5-3.7c0,0-24.8-11.9-43.1-20.1C86,7.7,71.5,1.2,67.2,1.2c-4.3,0-19,6.6-22.7,8.2C26.3,17.7,1.4,29.7,1.4,29.7   c-1.4,0.6-2.1,2.3-1.5,3.7c0.6,1.4,2.3,2.1,3.7,1.5c0,0,23-11.2,41-19.3C48.5,13.8,62.8,7.4,67.2,7.4z M19.4,12.5   c1.6,0,2.8-1.3,2.8-2.8V6.9h8.5c1.6,0,2.8-1.3,2.8-2.8c0-1.6-1.3-2.8-2.8-2.8H19.4c-1.6,0-2.8,1.3-2.8,2.8v5.6   C16.6,11.3,17.8,12.5,19.4,12.5z M118.1,49.2v14.6c1.6,0.6,3.2,1.2,4.7,1.9c0.3,0.2,0.6,0.3,0.9,0.5v-17c0-1.6-1.3-2.8-2.8-2.8   C119.3,46.4,118.1,47.6,118.1,49.2z M162,85.8c-1.2-0.3-2.5-0.6-3.8-0.8c-1.3-0.2-2.6-0.3-3.8-0.2c-2.6,0-5.1,0.4-7.4,1.1   c-6.4,2-9.1,7.7-9.1,7.7c-0.9-4.3-3.5-8.7-7-11.6c-2.1-1.7-3.6-2.9-6.5-4.3c-1.4-0.7-3-1.3-4.6-1.8c-1.6-0.5-3.7-0.7-5.5-1   c-13.4-2.5-36,6.3-35.7,31.4c0.8,22.4,19,44.3,51.9,58.4c34.3-22.9,48.1-37.5,49.6-50.8C181.3,95.9,171.6,88.8,162,85.8z    M171.8,121.4c-6.1,10.6-24.3,25.3-41.4,37.2c-17.7-6.8-45.2-27.3-46.1-50.2c0-26.8,22.4-29.8,31.3-27.5c5.2,1.4,7.8,2.1,11.8,5.5   c2.1,1.8,3.7,4.6,5,7c1.8,3.5,3.2,7.3,4.7,10.7c0,0,4-10.7,12.4-12.8c1.8-0.5,3.1-0.9,5-0.9c1,0,1.9,0.1,2.9,0.2   c1,0.1,2.2,0.3,4.8,1.1c5.6,1.8,11.4,7.6,12.3,15.7C175,112.2,173.4,118.6,171.8,121.4z M53.2,63.3c-10.9,0-19.7,7.1-19.7,15.8   v15.2v8.5v5.6H16.6V49.2c0-1.6-1.3-2.8-2.8-2.8c-1.6,0-2.8,1.3-2.8,2.8v62c0,1.6,1.3,2.8,2.8,2.8h22.6c1.6,0,2.8-1.3,2.8-2.8v-8.5   v-8.5V80.2c0-6.2,6.3-11.3,14.1-11.3c7.8,0,14.1,5.1,14.1,11.3v14.1c0-0.8,0.3-1.5,0.8-2c0.9-4.8,2.6-9.2,4.8-12.9v-0.3   C73,70.3,64.1,63.3,53.2,63.3z"></path>	</g></g></svg>