<svg xmlns="http://www.w3.org/2000/svg" xmlns:xlink="http://www.w3.org/1999/xlink" id="Calque_1" x="0px" y="0px" viewBox="0 0 180.2 168.7" style="enable-background:new 0 0 180.2 168.7;" xml:space="preserve"><style type="text/css">	.st0{fill-rule:evenodd;clip-rule:evenodd;}</style><g id="_x30_6">	<g>		<path class="st0" d="M23.6,64.3c-1.1,0.3-1.7,1.6-1.3,3c0.4,1.3,1.5,2.2,2.6,1.9l50-13.4c-0.1-1.7-0.1-3.5-0.1-5.2L23.6,64.3z    M144.9,74.6c-7.9,7.9-22.4,10.9-34.5,6.7l-5.5,5.5l-3.4-3.5L89.1,95.6l0.4,7.8c0,0.4,0.2,2.4-2.5,2.5l-7.9-0.4l-6.6,6.6l-0.5,4.4   c-0.1,0.5,0.2,2.3-2.3,2.4l-4.5,0.5l-10.2,10.3l0.7,8.2c0,0.4,0.2,2.1-2.2,2l-8.2-0.6l-8.3,8.4l0.1,3.5c0,0.6-0.5,1.2-1.2,1.2   c-0.8,0-3.2-0.1-3.2-0.1c-2.4,0.9-5.6,1.8-7.8-0.2l-6.6-6.6c-2.6-2.6-2.5-4.1,0.6-7.2L93,63.9c-4.3-12-1.2-26.5,6.7-34.4   c12.5-12.4,32.7-12.4,45.2,0c4,4,6.7,8.8,8.1,13.8c1.6-0.9,2.9-2.2,4-3.7c-1.8-5-4.7-9.6-8.6-13.6c-14.4-14.4-37.7-14.4-52.1,0   c-8.4,8.4-12.1,23.3-8.7,36.4L13.9,136c-3.5,3.4-3.5,8.9-0.2,12.2l8.7,8.6c2.4,2.4,7.8,1.2,10.6,0.4l5,0.2   c4.1,0.3,3.8-3.2,3.8-3.7l-0.2-3.9l5.3-5.3l9.7,0.3c4.1,0.2,3.8-3.2,3.8-3.7l-0.4-9.7l7.2-7.1l4.4-0.6c4.7-0.4,4.9-4.3,5-5   l0.5-4.5l3.7-3.7l9.8,0.4c4.1,0.3,3.8-3.2,3.8-3.7l-0.4-9.7l7.3-7.2l3.4,3.3l7-6.9c13.2,3.4,28.1-0.3,36.5-8.7   c5.9-5.9,9.4-13.3,10.5-21c-1.7,0.8-3.5,1.5-5.3,2C152.2,64.7,149.3,70.2,144.9,74.6z M14.2,75c0.7,2.7,5.1,4,7.5,4.5l3.6,2.1   c2.8,1.8,4.1-0.8,4.3-1.1l1.5-2.8l6.1-1.6l6.9,4c2.8,1.8,4.1-0.8,4.3-1.1l3.9-7l8.3-2.2l3.4,1.3c0.2,0.1,0.5,0.2,0.7,0.3   l10.7-10.7L69,62.4l-2.2,3.1c-0.5,0.6-1.5,0.8-2.5,0.5l-3.5-1.5l-12.1,3.3l-2.6,5.3c-0.2,0.3-0.5,2.1-3,0.8l-5.4-3.2l-9.4,2.6   l-1.4,2c-0.1,0.3-0.8,0.6-1.4,0.5l-2.6-1.5c-2.1-0.3-4.3-1.7-4.8-3.7l-1.4-5.2c-0.8-2.8,0-4.2,3.6-5.2l55-14.8   c0.2-1.8,0.5-3.6,0.9-5.4L16.8,56c-4,1-6.4,4.9-5.4,8.5L14.2,75z M136.4,37.9c1.2,1.2,2,2.7,2.5,4.2c1.5,1.3,3.3,2.2,5.3,2.6   c-0.1-3.7-1.5-7.4-4.3-10.2c-5.8-5.8-15.1-5.8-20.9,0c-5.8,5.8-5.8,15.1,0,20.8c4.8,4.8,12,5.6,17.6,2.4c-2-0.8-3.9-1.9-5.7-3.1   c-3,0.5-6.2-0.4-8.5-2.8c-3.8-3.9-3.8-10.1,0-14C126.4,34.1,132.6,34.1,136.4,37.9z M82.4,81.5l-59.1,58.9c-1,1-1,2.5,0,3.5   c1,1,2.5,1,3.5,0L85.8,85c1-1,1-2.5,0-3.5C84.9,80.6,83.3,80.6,82.4,81.5z M146.8,10.5c-2.9,0-5.6,0.5-8.2,1.5   c0,0,5.1,2.5,6.6,3.4c0.5,0,1-0.1,1.5-0.1c9.5,0,17.2,7.7,17.2,17.2c0,9.5-7.7,17.2-17.2,17.2c-4.7,0-8.9-1.9-12-4.9   c-0.7-0.7-0.9-0.9-0.9-0.9c-0.9-1-2.4-1.2-3.5-0.3c-1,0.9-1.2,2.4-0.3,3.5c0,0,1,1.1,2.5,2.4c3.9,3.2,8.8,5.2,14.2,5.2   c12.2,0,22.2-9.9,22.2-22.2C169,20.5,159.1,10.5,146.8,10.5z"></path>	</g></g></svg>