<svg xmlns="http://www.w3.org/2000/svg" xmlns:xlink="http://www.w3.org/1999/xlink" id="Calque_1" x="0px" y="0px" viewBox="0 0 500 500" style="enable-background:new 0 0 500 500;" xml:space="preserve"><style type="text/css">	.st0{fill:#131B2F;}</style><path class="st0" d="M477.7,138.3H24.5c-9.5,0-17.2-7.7-17.2-17.2s7.7-17.2,17.2-17.2h453.2c9.5,0,17.2,7.7,17.2,17.2 S487.2,138.3,477.7,138.3z"></path><path class="st0" d="M477.7,257.8H24.5c-9.5,0-17.2-7.7-17.2-17.2s7.7-17.2,17.2-17.2h453.2c9.5,0,17.2,7.7,17.2,17.2 S487.2,257.8,477.7,257.8z"></path><path class="st0" d="M477.7,377.3H24.5c-9.5,0-17.2-7.7-17.2-17.2c0-9.5,7.7-17.2,17.2-17.2h453.2c9.5,0,17.2,7.7,17.2,17.2 C494.9,369.6,487.2,377.3,477.7,377.3z"></path><path class="st0" d="M661.3,236.3l-15.5-15.5c3.1-4.1,5-9.2,5-14.7c0-13.2-10.8-24-24-24s-24,10.8-24,24c0,13.2,10.8,24,24,24 c5.9,0,11.4-2.2,15.5-5.7l15.4,15.4c0.5,0.5,1.1,0.7,1.8,0.7s1.3-0.2,1.8-0.7C662.2,238.9,662.2,237.3,661.3,236.3z M626.8,225.5 c-10.7,0-19.4-8.7-19.4-19.4c0-10.7,8.7-19.4,19.4-19.4s19.4,8.7,19.4,19.4C646.1,216.8,637.4,225.5,626.8,225.5z"></path></svg>