<svg xmlns="http://www.w3.org/2000/svg" xmlns:xlink="http://www.w3.org/1999/xlink" id="Calque_1" x="0px" y="0px" viewBox="0 0 800 800" style="enable-background:new 0 0 800 800;" xml:space="preserve"><style type="text/css">	.st0{clip-path:url(#SVGID_00000033350086700054848560000007302026240277569691_);}	.st1{fill:#C29B40;}	.st2{clip-path:url(#SVGID_00000014615683976394750040000006810551981544865954_);}</style><g>	<defs>		<rect id="SVGID_1_" x="204.5" y="25" width="424.9" height="751"></rect>	</defs>	<clipPath id="SVGID_00000046332805050064421270000004424565332218149801_">		<use xlink:href="#SVGID_1_" style="overflow:visible;"></use>	</clipPath>	<g style="clip-path:url(#SVGID_00000046332805050064421270000004424565332218149801_);">		<path class="st1" d="M606.2,652.6H227.7v-521h378.6V652.6z M416.9,743.4c-16,0-29.1-13.1-29.1-29.1c0-16.1,13-29.1,29.1-29.1   c16,0,29.1,13,29.1,29.1C446,730.4,433,743.4,416.9,743.4z M331.1,64.6c7.5,0,13.7,6.1,13.7,13.7c0,7.6-6.2,13.7-13.7,13.7   s-13.7-6.1-13.7-13.7C317.4,70.8,323.6,64.6,331.1,64.6z M376.8,70.8H457c4.2,0,7.5,3.4,7.5,7.6c0,4.2-3.4,7.6-7.5,7.6h-80.2   c-4.2,0-7.5-3.4-7.5-7.6C369.3,74.2,372.7,70.8,376.8,70.8z M585.3,25H248.6c-24.3,0-44.1,19.8-44.1,44.2v662.7   c0,24.4,19.8,44.2,44.1,44.2h336.7c24.3,0,44.1-19.8,44.1-44.2V69.2C629.4,44.8,609.6,25,585.3,25"></path>	</g></g><g>	<defs>		<rect id="SVGID_00000178165352392871210960000002348672450818788237_" x="400" y="679.8" width="66" height="66"></rect>	</defs>	<clipPath id="SVGID_00000022551780902302721830000015711110166050129309_">		<use xlink:href="#SVGID_00000178165352392871210960000002348672450818788237_" style="overflow:visible;"></use>	</clipPath>	<g style="clip-path:url(#SVGID_00000022551780902302721830000015711110166050129309_);">		<g>			<defs>				<circle id="SVGID_00000062908053206079277440000000468334628574977189_" cx="433" cy="712.8" r="33"></circle>			</defs>			<clipPath id="SVGID_00000049197833211486187170000012808130023517616260_">				<use xlink:href="#SVGID_00000062908053206079277440000000468334628574977189_" style="overflow:visible;"></use>			</clipPath>		</g>	</g></g></svg>