<svg xmlns="http://www.w3.org/2000/svg" xmlns:xlink="http://www.w3.org/1999/xlink" id="Calque_1" x="0px" y="0px" viewBox="0 0 500 500" style="enable-background:new 0 0 500 500;" xml:space="preserve"><style type="text/css">	.st0{fill:#131B2F;}</style><path class="st0" d="M482.2,443.9L357.1,318.8c25.4-32.8,40.6-74,40.6-118.6c0-107-87-194-194-194s-194,87-194,194 c0,107,87,194,194,194c47.8,0,91.7-17.4,125.5-46.2l124.4,124.4c3.9,3.9,9.1,5.9,14.3,5.9s10.3-2,14.3-5.9 C490.1,464.6,490.1,451.8,482.2,443.9z M203.7,356.6c-86.2,0-156.4-70.1-156.4-156.4c0-86.2,70.1-156.4,156.4-156.4 S360,114,360,200.2C360,286.4,289.9,356.6,203.7,356.6z"></path></svg>