<svg xmlns="http://www.w3.org/2000/svg" xmlns:xlink="http://www.w3.org/1999/xlink" id="Calque_1" x="0px" y="0px" viewBox="0 0 180.2 168.7" style="enable-background:new 0 0 180.2 168.7;" xml:space="preserve"><style type="text/css">	.st0{fill-rule:evenodd;clip-rule:evenodd;}</style><g id="_x30_5">	<g>		<path class="st0" d="M60.9,157.2C59.6,157.2,59.8,157.2,60.9,157.2C62,157.2,62.2,157.2,60.9,157.2z M45.9,113.5   c0.1,0,0.1,0,0.2,0C45.9,113.5,45.8,113.5,45.9,113.5z M60.9,103.9c12,0,21.8-12,21.8-26.7c0-14.7-9.8-26.7-21.8-26.7   c-12,0-21.8,12-21.8,26.7C39.1,91.9,48.9,103.9,60.9,103.9z M60.9,55.3c9.4,0,17,9.8,17,21.8c0,12-7.6,21.8-17,21.8   c-9.4,0-17-9.8-17-21.8C43.9,65.1,51.5,55.3,60.9,55.3z M75.9,113.5c0,0-0.1,0-0.2,0C75.8,113.5,75.9,113.5,75.9,113.5z M153,34.3   c0,0-0.7-0.4-1.9-1c-5.5-2.7-23.1-11.9-27.2-11.9c-4.2,0-21.8,9.2-27.3,12c-1.1,0.6-1.8,1-1.8,1c0.1,1.6,2.4,1.6,5.5,1.6   c0,0,11.8-2.2,23.6-2.2c11.8,0,23.6,2.2,23.6,2.2C150.6,35.9,153,35.9,153,34.3z M130,29.3c0,0-3-0.5-6-0.5c-3,0-6,0.5-6,0.5   c-0.8,0-1.4,0-1.4-0.4c0,0,0.2-0.1,0.5-0.2c1.4-0.6,6-2.6,7-2.6c0.9,0,5.5,2,6.9,2.6c0.3,0.1,0.5,0.2,0.5,0.2   C131.3,29.2,130.7,29.3,130,29.3z M107,40.8c-1.3,0-2.4,1-2.4,2.3v19.7c0,1.3,1.1,2.3,2.4,2.3h33.9c1.3,0,2.4-1,2.4-2.3V43.1   c0-1.3-1.1-2.3-2.4-2.3c-1.3,0-2.4,1-2.4,2.3v17.1h-29.1V43.1C109.4,41.8,108.3,40.8,107,40.8z M109.3,148.2   c-0.5-11.5-2.9-21.5-14.6-25.2c-2.7-0.9-3.2-1-7.8-2.6c-0.3-0.1-5.7-1.9-7.5-4.1c-1.7-2.1-2.4-2.5-3.5-2.7   c0.3,0.1-2.9-0.2-2.4,2.8c0.2,1,1.2,2.5,3.1,3.9c3.8,3.1,12.6,6.1,14.7,6.6c9.3,2.2,11.8,9.7,12.6,16.6c0.1,1.6,0.6,4.9,0,7.4   c-0.4,1.9-6.9,3.8-13.4,4.9c-11,1.5-25.9,1.6-29.6,1.6c-3.8,0-18.6-0.1-29.6-1.6c-6.5-1.2-13-3-13.4-4.9c-0.6-2.5-0.1-5.8,0-7.4   c0.9-6.8,3.3-14.3,12.6-16.6c2.2-0.5,10.9-3.5,14.7-6.6c1.9-1.4,2.9-2.9,3.1-3.9c0.3-2.9-2.3-2.7-2.4-2.8c-1,0.2-1.8,0.7-3.5,2.7   c-1.8,2.3-7.2,4-7.5,4.1c-4.6,1.6-5.1,1.7-7.8,2.6c-11.7,3.7-14.1,13.8-14.6,25.2c0,2.5-0.1-1-0.1,3.3c0,3.2,4.3,6,12.4,7.9   c13.7,2.4,30.7,2.6,36,2.5c-2,0-2.3-0.1,0-0.1s2,0.1,0,0.1c5.3,0.1,22.4-0.1,36-2.5c8.2-1.9,12.4-4.7,12.4-7.9   C109.4,147.2,109.3,150.7,109.3,148.2z M157.9,6.8H90c-5.4,0-9.7,4.3-9.7,9.7v7.3v2.4v7.3c0,1.3,1.1,2.4,2.4,2.4s2.4-1.1,2.4-2.4   v-7.3v-2.4v-7.3c0-2.7,2.2-4.8,4.8-4.8h67.9c2.7,0,4.8,2.2,4.8,4.8v53.3c0,2.7-2.2,4.8-4.8,4.8h-15.8v0c-6.9,0-15.9,0-23.8,1.4   c-7.6,1.4-15,3.8-22.1,6.8c-1.2,0.5-1.8,2-1.2,3.2c0.5,1.2,1.9,1.8,3.1,1.3c6.9-2.9,14.1-5.2,21.4-6.6c7.9-1.4,16.9-1.2,23.8-1.3   h14.5c5.4,0,9.7-4.3,9.7-9.7V16.5C167.6,11.2,163.2,6.8,157.9,6.8z"></path>	</g></g></svg>