<svg xmlns="http://www.w3.org/2000/svg" xmlns:xlink="http://www.w3.org/1999/xlink" id="Calque_1" x="0px" y="0px" viewBox="0 0 180.2 168.7" style="enable-background:new 0 0 180.2 168.7;" xml:space="preserve"><style type="text/css">	.st0{fill-rule:evenodd;clip-rule:evenodd;}</style><g id="_x30_3">	<g>		<path class="st0" d="M105,31.9c0-5.5-4.5-10-10-10c-5.5,0-10,4.5-10,10c0,5.5,4.5,10,10,10C100.5,41.8,105,37.4,105,31.9z    M90,31.9c0-2.8,2.2-5,5-5c2.8,0,5,2.2,5,5c0,2.8-2.2,5-5,5C92.2,36.9,90,34.6,90,31.9z M95,77c0,0,3.7-9,9.4-18.7   c5-8.5,10.6-17.5,10.6-24c0-0.5,0-1.3,0-2.3c0-11.1-9-20-20-20s-20,9-20,20c0,0.6,0,1.4,0,2.3c0,6.6,5.6,15.6,10.6,24   C91.3,68,95,77,95,77z M80,31.9c0-8.3,6.7-15,15-15c8.3,0,15,6.7,15,15c0,1.2,0,1.8,0,2.2c0,5.1-4.2,12-8,18.5   C97.7,60.1,95,66.9,95,66.9s-2.7-6.9-7.1-14.4c-3.8-6.5-8-13.4-8-18.5C80,33.1,80,32.4,80,31.9z M170.1,74.1v-20   c0-2.3-2.1-2.8-4.6-1.2L119.6,82c-0.8,0.5-1.5,1.2-2.2,1.9c-0.7-0.7-1.5-1.4-2.4-1.9l-10-5.8c-0.9,1.6-1.7,3.1-2.4,4.5l9.2,5.4   c2.3,1.5,3.3,3.1,3.3,5.1v12.5c-5.8,3.8-9.4,8.4-15.1,8.4c-7.9,0.1-10.5-3.5-14.9-9.7c-1.6-2.2-3.9-5.7-3.9-5.7   c-4.4-6.1-9.7-10.9-16.2-13.2V61.4c0-2.1,1.1-2.2,3.3-0.8l11.7,6.8c-1.9-3.1-4.1-6.3-6.2-9.4L65,52.9c-0.4-0.2-0.8-0.4-1.2-0.5   c-0.3-0.2-0.8-0.3-1.2-0.2c0,0,0,0,0,0c0,0,0,0,0,0c-0.8,0-1.4,0.2-1.8,0.6c-0.1,0.1-0.2,0.1-0.3,0.2L14.5,82   c-2.5,1.6-4.6,4.8-4.6,7v31.8l0,0.9c0,0,0,0,0,0v33.2c0,2.3,2.1,2.8,4.6,1.2l45.9-29.1c0.8-0.5,1.5-1.2,2.2-1.9   c0.7,0.7,1.5,1.4,2.4,1.9l50.1,29.1c0.4,0.2,0.8,0.4,1.2,0.5c0.3,0.2,0.8,0.3,1.2,0.2c0,0,0,0,0,0c0,0,0,0,0,0   c0.8,0,1.4-0.2,1.8-0.6c0.1-0.1,0.2-0.1,0.3-0.2l45.9-29.1c2.5-1.6,4.6-4.8,4.6-7V77.5c0,0,0,0,0,0L170.1,74.1z M59.9,118   c0,2.1-0.9,3.8-3,5.3L17.9,148c-2.1,1.5-3,1.3-3-0.8v-26.5c11.9-3.2,13.4-12.6,14.3-17c1.9-8.9,9.1-16.7,25.6-17   c1.8,0,3.5,0.2,5.1,0.5V118z M59.9,82.3c-1.6-0.3-3.3-0.4-5.1-0.3c-18.5,0.5-28.3,9.6-30.5,20.6c-0.8,3.8-1.1,10-9.5,13V91   c0-2.1,0.9-3.6,3-5.1L57,61.1c2.1-1.5,3-1.4,3,0.6V82.3z M115,147.7c0,2.1-1.1,2.2-3.3,0.8l-43.5-25.4c-2.3-1.5-3.3-3.1-3.3-5.1   V88.9c5.5,2.5,9.6,6.8,11.9,10.5c0,0,3.3,5.2,5.6,8.1c4.6,5.8,8.3,9.6,17.5,9.6c6.5,0,10.3-3.8,15.1-7.4V147.7z M165.1,118.1   c0,2.1-0.9,3.5-2.9,4.9L122.9,148c-2,1.5-2.9,1.3-2.9-0.8v-40.8c3.9-2,8.7-3.2,15.5-2.5c13.9,1.5,16.1-6.1,23-16.8   c1.6-2.4,3.8-5,6.5-6.9V118.1z M165.1,74.6c-5,2.6-7.6,5.8-10.8,10.3c-6.4,9-7.6,15.4-18.7,14.3c-6.6-0.6-11.5,0.3-15.5,1.9V91   c0-2.1,0.9-3.6,2.9-5.1L162.2,61c2-1.5,2.9-1.1,2.9,0.9V74.6z"></path>	</g></g></svg>